<svg width="68" height="71" viewBox="0 0 68 71" fill="none" xmlns="http://www.w3.org/2000/svg">
<g clip-path="url(#clip0_4001_149)">
<path fill-rule="evenodd" clip-rule="evenodd" d="M-1583 10C-1583 4.47715 -1578.52 0 -1573 0H327C332.523 0 337 4.47715 337 10V94.99C337 94.9955 336.996 95 336.99 95V95C336.985 95 336.98 94.9957 336.98 94.9903C336.45 81.6513 325.469 71 312 71H53.519C48.4555 71 44.2962 67.1673 42.8122 62.3261C36.5424 41.8723 17.508 27 -5 27H-1032C-1054.51 27 -1073.54 41.8723 -1079.81 62.3261C-1081.3 67.1673 -1085.46 71 -1090.52 71H-1558C-1571.47 71 -1582.45 81.6513 -1582.98 94.9903C-1582.98 94.9957 -1582.98 95 -1582.99 95V95C-1583 95 -1583 94.9955 -1583 94.99V10Z" fill="#7027E2"/>
</g>
<defs>
<clipPath id="clip0_4001_149">
<rect width="68" height="71" fill="white"/>
</clipPath>
</defs>
</svg>
